<svg xmlns="http://www.w3.org/2000/svg" width="24" height="24"><rect id="backgroundrect" width="100%" height="100%" x="0" y="0" fill="none" stroke="none"/><g class="currentLayer" style=""><title>Layer 1</title><path fill="none" d="M0 0h24v24H0V0z" id="svg_1"/><path d="M 1 21 h 4 V 9 H 1 v 12 Z m 22 -11 c 0 -1.1 -0.9 -2 -2 -2 h -6.31 l 0.95 -4.57 l 0.03 -0.32 c 0 -0.41 -0.17 -0.79 -0.44 -1.06 L 14.17 1 L 7.59 7.59 C 7.22 7.95 7 8.45 7 9 v 10 c 0 1.1 0.9 2 2 2 h 9 c 0.83 0 1.54 -0.5 1.84 -1.22 l 3.02 -7.05 c 0.09 -0.23 0.14 -0.47 0.14 -0.73 v -2 Z" id="svg_2" class="" transform="" fill="#919191" fill-opacity="1"/></g></svg>