<svg xmlns="http://www.w3.org/2000/svg" width="24" height="24" style=""><rect id="backgroundrect" width="100%" height="100%" x="0" y="0" fill="none" stroke="none"/><g class="currentLayer" style=""><title>Layer 1</title><path d="M3 18h6v-2H3v2zM3 6v2h18V6H3zm0 7h12v-2H3v2z" id="svg_1"/><path d="M 0.0390625 0 h 24 v 24 H 0.0390625 Z" fill="none" id="svg_2" class="selected"/><path fill="#0bd5d5" fill-opacity="1" stroke="none" stroke-opacity="1" stroke-width="1" stroke-dasharray="none" stroke-linejoin="miter" stroke-linecap="butt" stroke-dashoffset="" fill-rule="nonzero" opacity="1" marker-start="" marker-mid="" marker-end="" d="M4.73593764400575,7.587500101514159L14.814062493829987,7.235937606752849" id="svg_3"/><path fill="#0bd5d5" fill-opacity="1" stroke="none" stroke-opacity="1" stroke-width="1" stroke-dasharray="none" stroke-linejoin="miter" stroke-linecap="butt" stroke-dashoffset="" fill-rule="nonzero" opacity="1" marker-start="" marker-mid="" marker-end="" d="M7.93906259627547,3.681250159721819L15.399999985098837,4.032812654483129" id="svg_5"/><rect fill="#e84141" stroke-dashoffset="" fill-rule="nonzero" id="svg_8" x="1" y="6" width="2" height="0" style="color: rgb(0, 0, 0);"/><rect fill="#919191" stroke-dashoffset="" fill-rule="nonzero" id="svg_4" x="3" y="6" width="18" height="2" style="color: rgb(0, 0, 0);"/><rect fill="#919191" stroke-dashoffset="" fill-rule="nonzero" id="svg_7" x="3" y="11" width="12" height="2" style="color: rgb(0, 0, 0);"/><rect fill="#919191" stroke-dashoffset="" fill-rule="nonzero" id="svg_10" x="3" y="16" width="6" height="2" style="color: rgb(0, 0, 0);"/><rect fill="#919191" stroke-dashoffset="" fill-rule="nonzero" id="svg_12" x="3" y="6" width="17" height="1" style="color: rgb(0, 0, 0);"/><rect fill="#919191" stroke-dashoffset="" fill-rule="nonzero" id="svg_14" x="3" y="11" width="12" height="1" style="color: rgb(0, 0, 0);"/><rect fill="#919191" stroke-dashoffset="" fill-rule="nonzero" id="svg_16" x="3" y="16" width="6" height="1" style="color: rgb(0, 0, 0);"/></g></svg>